<svg xmlns="http://www.w3.org/2000/svg" width="512" height="512" viewBox="0 0 512 512" role="img" aria-label="SnugBug brand graphic">
<circle cx="256" cy="256" r="236" fill="#CFE8F7"/>
<g transform="translate(120,125) scale(1.8)">
<g id="ladybug">
  <ellipse cx="78" cy="72" rx="42" ry="34" fill="#E84C3D" stroke="#222222" stroke-width="5"/>
  <ellipse cx="116" cy="74" rx="30" ry="30" fill="#222222" stroke="#222222" stroke-width="4"/>
  <line x1="82" y1="42" x2="82" y2="102" stroke="#222222" stroke-width="4"/>
  <circle cx="61" cy="59" r="5" fill="#222222"/><circle cx="58" cy="80" r="5" fill="#222222"/><circle cx="76" cy="88" r="5" fill="#222222"/>
  <circle cx="95" cy="58" r="5" fill="#222222"/><circle cx="94" cy="89" r="5" fill="#222222"/>
  <path d="M104 55 q8 -15 20 -17" fill="none" stroke="#222222" stroke-width="4" stroke-linecap="round"/>
  <path d="M110 57 q16 -22 24 -23" fill="none" stroke="#222222" stroke-width="4" stroke-linecap="round"/>
  <circle cx="126" cy="36" r="4" fill="#222222"/><circle cx="136" cy="31" r="4" fill="#222222"/>
  <circle cx="119" cy="64" r="3.5" fill="#FFFDF9"/><circle cx="128" cy="74" r="3.5" fill="#FFFDF9"/>
  <path d="M103 89 q11 10 23 0" fill="none" stroke="#FFFDF9" stroke-width="4" stroke-linecap="round"/>
  <circle cx="44" cy="47" r="6" fill="#FFFDF9" opacity="0.55"/>
</g>
</g>
<path d="M58 388 q48 24 98 -10" fill="none" stroke="#7FB069" stroke-width="14" stroke-linecap="round"/>
<path d="M360 374 q34 26 82 2" fill="none" stroke="#7FB069" stroke-width="14" stroke-linecap="round"/>
</svg>