<svg xmlns="http://www.w3.org/2000/svg" width="1400" height="420" viewBox="0 0 1400 420" role="img" aria-label="SnugBug brand graphic"><rect width="1400" height="420" fill="#FFFDF9"/>
<rect x="40" y="84" width="180" height="76" rx="38" fill="#CFE8F7" opacity="0.85"/>
<circle cx="96" cy="118" r="28" fill="#CFE8F7"/><circle cx="154" cy="110" r="34" fill="#CFE8F7"/><circle cx="196" cy="126" r="22" fill="#CFE8F7"/>
<text x="70" y="122" font-size="92" font-family="Trebuchet MS, Verdana, Arial, sans-serif" font-weight="700" fill="#222222">Snug</text>
<text x="355" y="122" font-size="92" font-family="Trebuchet MS, Verdana, Arial, sans-serif" font-weight="700" fill="#E84C3D">Bug</text>
<g transform="translate(585,42) scale(0.9)">
<g id="ladybug">
  <ellipse cx="78" cy="72" rx="42" ry="34" fill="#E84C3D" stroke="#222222" stroke-width="5"/>
  <ellipse cx="116" cy="74" rx="30" ry="30" fill="#222222" stroke="#222222" stroke-width="4"/>
  <line x1="82" y1="42" x2="82" y2="102" stroke="#222222" stroke-width="4"/>
  <circle cx="61" cy="59" r="5" fill="#222222"/><circle cx="58" cy="80" r="5" fill="#222222"/><circle cx="76" cy="88" r="5" fill="#222222"/>
  <circle cx="95" cy="58" r="5" fill="#222222"/><circle cx="94" cy="89" r="5" fill="#222222"/>
  <path d="M104 55 q8 -15 20 -17" fill="none" stroke="#222222" stroke-width="4" stroke-linecap="round"/>
  <path d="M110 57 q16 -22 24 -23" fill="none" stroke="#222222" stroke-width="4" stroke-linecap="round"/>
  <circle cx="126" cy="36" r="4" fill="#222222"/><circle cx="136" cy="31" r="4" fill="#222222"/>
  <circle cx="119" cy="64" r="3.5" fill="#FFFDF9"/><circle cx="128" cy="74" r="3.5" fill="#FFFDF9"/>
  <path d="M103 89 q11 10 23 0" fill="none" stroke="#FFFDF9" stroke-width="4" stroke-linecap="round"/>
  <circle cx="44" cy="47" r="6" fill="#FFFDF9" opacity="0.55"/>
</g>
</g>
<text x="70" y="215" font-size="38" font-family="Trebuchet MS, Verdana, Arial, sans-serif" fill="#222222">Small in size. Big on comfort.</text>
</svg>