<svg xmlns="http://www.w3.org/2000/svg" width="1600" height="1200" viewBox="0 0 1600 1200" role="img" aria-label="SnugBug brand graphic">
<rect width="1600" height="1200" fill="#FFFDF9"/>
<text x="70" y="90" font-size="54" font-family="Trebuchet MS, Verdana, Arial, sans-serif" font-weight="700" fill="#222222">SnugBug SVG Brand Kit</text>
<text x="70" y="132" font-size="24" font-family="Trebuchet MS, Verdana, Arial, sans-serif" fill="#222222">Logo variations for packaging, social, web, and marketing use.</text>
<g transform="translate(70,180)"><rect width="1460" height="220" rx="28" fill="white"/><g transform="translate(28,18) scale(0.88)">
<g transform="translate(30,25)">
  
<g id="ladybug">
  <ellipse cx="78" cy="72" rx="42" ry="34" fill="#E84C3D" stroke="#222222" stroke-width="5"/>
  <ellipse cx="116" cy="74" rx="30" ry="30" fill="#222222" stroke="#222222" stroke-width="4"/>
  <line x1="82" y1="42" x2="82" y2="102" stroke="#222222" stroke-width="4"/>
  <circle cx="61" cy="59" r="5" fill="#222222"/><circle cx="58" cy="80" r="5" fill="#222222"/><circle cx="76" cy="88" r="5" fill="#222222"/>
  <circle cx="95" cy="58" r="5" fill="#222222"/><circle cx="94" cy="89" r="5" fill="#222222"/>
  <path d="M104 55 q8 -15 20 -17" fill="none" stroke="#222222" stroke-width="4" stroke-linecap="round"/>
  <path d="M110 57 q16 -22 24 -23" fill="none" stroke="#222222" stroke-width="4" stroke-linecap="round"/>
  <circle cx="126" cy="36" r="4" fill="#222222"/><circle cx="136" cy="31" r="4" fill="#222222"/>
  <circle cx="110" cy="68" r="3.5" fill="#FFFDF9"/><circle cx="124" cy="68" r="3.5" fill="#FFFDF9"/>
  <path d="M103 89 q11 10 23 0" fill="none" stroke="#FFFDF9" stroke-width="4" stroke-linecap="round"/>
  <circle cx="44" cy="47" r="6" fill="#FFFDF9" opacity="0.55"/>
</g>

  <text x="170" y="110" font-size="108" font-family="Trebuchet MS, Verdana, Arial, sans-serif" font-weight="700" fill="#222222">Snug</text>
  <text x="492" y="110" font-size="108" font-family="Trebuchet MS, Verdana, Arial, sans-serif" font-weight="700" fill="#E84C3D">Bug</text>
  <line x1="655" y1="18" x2="662" y2="-10" stroke="#222222" stroke-width="5" stroke-linecap="round"/>
  <line x1="684" y1="18" x2="684" y2="-14" stroke="#222222" stroke-width="5" stroke-linecap="round"/>
  <circle cx="662" cy="-13" r="4" fill="#222222"/><circle cx="684" cy="-17" r="4" fill="#222222"/>
  <text x="170" y="190" font-size="44" font-family="Trebuchet MS, Verdana, Arial, sans-serif" fill="#222222">Sooth the stuffiness.</text>
  <text x="625" y="190" font-size="44" font-family="Trebuchet MS, Verdana, Arial, sans-serif" font-weight="700" fill="#E84C3D">Stop the bleed.</text>
  <path d="M922 180 c8 -12 21 -12 29 0 c-8 12 -21 12 -29 0z" fill="#E84C3D"/>
  <path d="M16 130 q-45 25 -8 48 q40 22 5 40" fill="none" stroke="#222222" stroke-width="3" stroke-dasharray="5 8" opacity="0.7"/>
</g>
</g></g>
<g transform="translate(70,450)"><rect width="440" height="560" rx="28" fill="white"/><g transform="translate(20,20) scale(0.5)"><g transform="translate(190,80)">
<g id="ladybug">
  <ellipse cx="78" cy="72" rx="42" ry="34" fill="#E84C3D" stroke="#222222" stroke-width="5"/>
  <ellipse cx="116" cy="74" rx="30" ry="30" fill="#222222" stroke="#222222" stroke-width="4"/>
  <line x1="82" y1="42" x2="82" y2="102" stroke="#222222" stroke-width="4"/>
  <circle cx="61" cy="59" r="5" fill="#222222"/><circle cx="58" cy="80" r="5" fill="#222222"/><circle cx="76" cy="88" r="5" fill="#222222"/>
  <circle cx="95" cy="58" r="5" fill="#222222"/><circle cx="94" cy="89" r="5" fill="#222222"/>
  <path d="M104 55 q8 -15 20 -17" fill="none" stroke="#222222" stroke-width="4" stroke-linecap="round"/>
  <path d="M110 57 q16 -22 24 -23" fill="none" stroke="#222222" stroke-width="4" stroke-linecap="round"/>
  <circle cx="126" cy="36" r="4" fill="#222222"/><circle cx="136" cy="31" r="4" fill="#222222"/>
  <circle cx="110" cy="68" r="3.5" fill="#FFFDF9"/><circle cx="124" cy="68" r="3.5" fill="#FFFDF9"/>
  <path d="M103 89 q11 10 23 0" fill="none" stroke="#FFFDF9" stroke-width="4" stroke-linecap="round"/>
  <circle cx="44" cy="47" r="6" fill="#FFFDF9" opacity="0.55"/>
</g>
</g><text x="145" y="340" font-size="142" font-family="Trebuchet MS, Verdana, Arial, sans-serif" font-weight="700" fill="#222222">Snug</text><text x="438" y="340" font-size="142" font-family="Trebuchet MS, Verdana, Arial, sans-serif" font-weight="700" fill="#E84C3D">Bug</text></g></g>
<g transform="translate(560,450)"><rect width="440" height="560" rx="28" fill="white"/><g transform="translate(60,36) scale(0.48)"><circle cx="350" cy="350" r="290" fill="#F7F2E8" stroke="#E84C3D" stroke-width="18"/><circle cx="350" cy="350" r="252" fill="#FFFDF9" stroke="#A8C48A" stroke-width="6" stroke-dasharray="7 10"/><g transform="translate(215,195) scale(1.55)">
<g id="ladybug">
  <ellipse cx="78" cy="72" rx="42" ry="34" fill="#E84C3D" stroke="#222222" stroke-width="5"/>
  <ellipse cx="116" cy="74" rx="30" ry="30" fill="#222222" stroke="#222222" stroke-width="4"/>
  <line x1="82" y1="42" x2="82" y2="102" stroke="#222222" stroke-width="4"/>
  <circle cx="61" cy="59" r="5" fill="#222222"/><circle cx="58" cy="80" r="5" fill="#222222"/><circle cx="76" cy="88" r="5" fill="#222222"/>
  <circle cx="95" cy="58" r="5" fill="#222222"/><circle cx="94" cy="89" r="5" fill="#222222"/>
  <path d="M104 55 q8 -15 20 -17" fill="none" stroke="#222222" stroke-width="4" stroke-linecap="round"/>
  <path d="M110 57 q16 -22 24 -23" fill="none" stroke="#222222" stroke-width="4" stroke-linecap="round"/>
  <circle cx="126" cy="36" r="4" fill="#222222"/><circle cx="136" cy="31" r="4" fill="#222222"/>
  <circle cx="110" cy="68" r="3.5" fill="#FFFDF9"/><circle cx="124" cy="68" r="3.5" fill="#FFFDF9"/>
  <path d="M103 89 q11 10 23 0" fill="none" stroke="#FFFDF9" stroke-width="4" stroke-linecap="round"/>
  <circle cx="44" cy="47" r="6" fill="#FFFDF9" opacity="0.55"/>
</g>
</g><text x="350" y="144" text-anchor="middle" font-size="58" font-family="Trebuchet MS, Verdana, Arial, sans-serif" font-weight="700" fill="#222222">SNUGBUG</text></g></g>
<g transform="translate(1050,450)"><rect width="480" height="560" rx="28" fill="white"/><g transform="translate(70,44) scale(0.63)"><circle cx="256" cy="256" r="236" fill="#CFE8F7"/><g transform="translate(120,125) scale(1.8)">
<g id="ladybug">
  <ellipse cx="78" cy="72" rx="42" ry="34" fill="#E84C3D" stroke="#222222" stroke-width="5"/>
  <ellipse cx="116" cy="74" rx="30" ry="30" fill="#222222" stroke="#222222" stroke-width="4"/>
  <line x1="82" y1="42" x2="82" y2="102" stroke="#222222" stroke-width="4"/>
  <circle cx="61" cy="59" r="5" fill="#222222"/><circle cx="58" cy="80" r="5" fill="#222222"/><circle cx="76" cy="88" r="5" fill="#222222"/>
  <circle cx="95" cy="58" r="5" fill="#222222"/><circle cx="94" cy="89" r="5" fill="#222222"/>
  <path d="M104 55 q8 -15 20 -17" fill="none" stroke="#222222" stroke-width="4" stroke-linecap="round"/>
  <path d="M110 57 q16 -22 24 -23" fill="none" stroke="#222222" stroke-width="4" stroke-linecap="round"/>
  <circle cx="126" cy="36" r="4" fill="#222222"/><circle cx="136" cy="31" r="4" fill="#222222"/>
  <circle cx="110" cy="68" r="3.5" fill="#FFFDF9"/><circle cx="124" cy="68" r="3.5" fill="#FFFDF9"/>
  <path d="M103 89 q11 10 23 0" fill="none" stroke="#FFFDF9" stroke-width="4" stroke-linecap="round"/>
  <circle cx="44" cy="47" r="6" fill="#FFFDF9" opacity="0.55"/>
</g>
</g></g><text x="240" y="450" text-anchor="middle" font-size="34" font-family="Trebuchet MS, Verdana, Arial, sans-serif" font-weight="700" fill="#222222">Social avatar</text></g>
</svg>