<svg xmlns="http://www.w3.org/2000/svg" width="800" height="900" viewBox="0 0 800 900" role="img" aria-label="SnugBug brand graphic"><rect width="800" height="900" fill="#FFFDF9"/>
<g transform="translate(190,80)">
<g id="ladybug">
  <ellipse cx="78" cy="72" rx="42" ry="34" fill="#E84C3D" stroke="#222222" stroke-width="5"/>
  <ellipse cx="116" cy="74" rx="30" ry="30" fill="#222222" stroke="#222222" stroke-width="4"/>
  <line x1="82" y1="42" x2="82" y2="102" stroke="#222222" stroke-width="4"/>
  <circle cx="61" cy="59" r="5" fill="#222222"/><circle cx="58" cy="80" r="5" fill="#222222"/><circle cx="76" cy="88" r="5" fill="#222222"/>
  <circle cx="95" cy="58" r="5" fill="#222222"/><circle cx="94" cy="89" r="5" fill="#222222"/>
  <path d="M104 55 q8 -15 20 -17" fill="none" stroke="#222222" stroke-width="4" stroke-linecap="round"/>
  <path d="M110 57 q16 -22 24 -23" fill="none" stroke="#222222" stroke-width="4" stroke-linecap="round"/>
  <circle cx="126" cy="36" r="4" fill="#222222"/><circle cx="136" cy="31" r="4" fill="#222222"/>
  <circle cx="119" cy="64" r="3.5" fill="#FFFDF9"/><circle cx="128" cy="74" r="3.5" fill="#FFFDF9"/>
  <path d="M103 89 q11 10 23 0" fill="none" stroke="#FFFDF9" stroke-width="4" stroke-linecap="round"/>
  <circle cx="44" cy="47" r="6" fill="#FFFDF9" opacity="0.55"/>
</g>
</g>
<text x="145" y="340" font-size="142" font-family="Trebuchet MS, Verdana, Arial, sans-serif" font-weight="700" fill="#222222">Snug</text>
<text x="438" y="340" font-size="142" font-family="Trebuchet MS, Verdana, Arial, sans-serif" font-weight="700" fill="#E84C3D">Bug</text>
<text x="96" y="425" font-size="42" font-family="Trebuchet MS, Verdana, Arial, sans-serif" fill="#222222">Sooth the stuffiness.</text>
<text x="430" y="425" font-size="42" font-family="Trebuchet MS, Verdana, Arial, sans-serif" font-weight="700" fill="#E84C3D">Stop the bleed.</text>
<g transform="translate(160,510)">
  <rect x="0" y="0" width="480" height="180" rx="28" fill="#CFE8F7"/>
  <text x="50" y="80" font-size="34" font-family="Trebuchet MS, Verdana, Arial, sans-serif" font-weight="700" fill="#222222">Playful. Healing.</text>
  <text x="50" y="124" font-size="30" font-family="Trebuchet MS, Verdana, Arial, sans-serif" fill="#222222">Trustworthy nasal care</text>
</g>
</svg>